mtllib kumpula-buildings.mtl
o KumpulaCampusBuildings
g Rakennukset_alue_rekisteritiedot-28059-0
usemtl context
v -83.1935 241.0754 0.0000
v -83.3309 235.6339 0.0000
v -87.5008 235.7389 0.0000
v -87.3628 241.1804 0.0000
v -83.1935 241.0754 6.8000
v -83.3309 235.6339 6.8000
v -87.5008 235.7389 6.8000
v -87.3628 241.1804 6.8000
f 5 6 7 8
f 4 3 2 1
f 1 2 6 5
f 2 3 7 6
f 3 4 8 7
f 4 1 5 8
g Rakennukset_alue_rekisteritiedot-29466-0
usemtl context
v -32.6752 -187.6475 0.0000
v -31.0012 -191.0355 0.0000
v -36.8881 -193.9144 0.0000
v -38.5760 -190.5576 0.0000
v -32.6752 -187.6475 6.8000
v -31.0012 -191.0355 6.8000
v -36.8881 -193.9144 6.8000
v -38.5760 -190.5576 6.8000
f 13 14 15 16
f 12 11 10 9
f 9 10 14 13
f 10 11 15 14
f 11 12 16 15
f 12 9 13 16
g Rakennukset_alue_rekisteritiedot-33188-0
usemtl campus
v -57.3511 -86.8353 0.0000
v -66.0588 -95.2800 0.0000
v -64.5446 -96.8407 0.0000
v -62.4050 -94.7663 0.0000
v -58.7017 -98.5856 0.0000
v -60.8413 -100.6600 0.0000
v -59.3687 -102.1783 0.0000
v -56.3035 -99.2064 0.0000
v -43.5113 -112.3966 0.0000
v -93.5675 -160.9400 0.0000
v -101.2952 -152.9726 0.0000
v -94.3391 -146.2260 0.0000
v -141.4000 -97.6985 0.0000
v -100.6259 -58.1570 0.0000
v -111.1311 -47.3245 0.0000
v -103.1625 -39.5970 0.0000
v -57.3511 -86.8353 17.0000
v -66.0588 -95.2800 17.0000
v -64.5446 -96.8407 17.0000
v -62.4050 -94.7663 17.0000
v -58.7017 -98.5856 17.0000
v -60.8413 -100.6600 17.0000
v -59.3687 -102.1783 17.0000
v -56.3035 -99.2064 17.0000
v -43.5113 -112.3966 17.0000
v -93.5675 -160.9400 17.0000
v -101.2952 -152.9726 17.0000
v -94.3391 -146.2260 17.0000
v -141.4000 -97.6985 17.0000
v -100.6259 -58.1570 17.0000
v -111.1311 -47.3245 17.0000
v -103.1625 -39.5970 17.0000
f 33 34 35 36 37 38 39 40 41 42 43 44 45 46 47 48
f 32 31 30 29 28 27 26 25 24 23 22 21 20 19 18 17
f 17 18 34 33
f 18 19 35 34
f 19 20 36 35
f 20 21 37 36
f 21 22 38 37
f 22 23 39 38
f 23 24 40 39
f 24 25 41 40
f 25 26 42 41
f 26 27 43 42
f 27 28 44 43
f 28 29 45 44
f 29 30 46 45
f 30 31 47 46
f 31 32 48 47
f 32 17 33 48
g Rakennukset_alue_rekisteritiedot-33270-0
usemtl campus
v 117.3823 30.4434 0.0000
v 113.8241 34.0139 0.0000
v 109.9830 30.3147 0.0000
v 113.5395 26.6718 0.0000
v 100.5880 14.1278 0.0000
v 87.5789 27.4913 0.0000
v 90.6749 30.4511 0.0000
v 87.8710 33.3539 0.0000
v 83.9616 29.5200 0.0000
v 81.6084 31.9858 0.0000
v 82.4168 32.8065 0.0000
v 48.9553 67.3214 0.0000
v 51.9620 70.3090 0.0000
v 50.2983 72.0948 0.0000
v 46.3834 68.3323 0.0000
v 44.0263 70.7736 0.0000
v 44.9695 71.6800 0.0000
v 36.5066 80.4732 0.0000
v 61.8791 105.0642 0.0000
v 58.3205 108.7607 0.0000
v 55.9442 106.5292 0.0000
v 47.3251 115.4328 0.0000
v 45.1351 113.3093 0.0000
v 42.3059 116.2010 0.0000
v 40.9950 113.3495 0.0000
v 38.9112 111.5223 0.0000
v 36.2861 110.6313 0.0000
v 34.4317 110.6313 0.0000
v 32.6403 111.1113 0.0000
v 31.0338 112.0381 0.0000
v 29.7225 113.3502 0.0000
v 28.7951 114.9562 0.0000
v 28.2463 117.3096 0.0000
v 26.1181 119.4210 0.0000
v 38.8572 132.1008 0.0000
v 39.0789 131.8968 0.0000
v 39.5877 132.3756 0.0000
v 38.6361 133.4045 0.0000
v 41.0957 135.7930 0.0000
v 44.7717 131.8836 0.0000
v 46.5416 133.6152 0.0000
v 43.5783 136.7598 0.0000
v 76.5179 168.3013 0.0000
v 78.6405 165.9604 0.0000
v 87.5480 174.4644 0.0000
v 93.6404 168.1572 0.0000
v 84.9807 159.4870 0.0000
v 89.4499 154.8564 0.0000
v 76.0976 141.9862 0.0000
v 72.9314 145.2324 0.0000
v 69.2324 141.7538 0.0000
v 76.6604 137.8324 0.0000
v 66.3398 118.1921 0.0000
v 60.4080 121.2938 0.0000
v 59.9847 120.9041 0.0000
v 65.2859 115.5454 0.0000
v 60.7396 111.1392 0.0000
v 64.3914 107.4114 0.0000
v 68.9160 111.8333 0.0000
v 74.3662 106.2227 0.0000
v 76.2299 108.1057 0.0000
v 74.4399 109.1306 0.0000
v 77.5329 114.9827 0.0000
v 104.0553 100.9745 0.0000
v 102.0830 97.2687 0.0000
v 99.8943 98.3429 0.0000
v 98.8041 96.2745 0.0000
v 90.8421 100.4613 0.0000
v 89.3400 97.5843 0.0000
v 91.7336 95.0104 0.0000
v 91.9225 93.5764 0.0000
v 91.5961 92.9136 0.0000
v 90.8194 92.3180 0.0000
v 89.6066 92.2384 0.0000
v 88.7091 92.7648 0.0000
v 88.0494 92.1278 0.0000
v 93.4935 86.4349 0.0000
v 81.9791 75.2394 0.0000
v 80.7049 76.4679 0.0000
v 77.1939 73.0271 0.0000
v 79.4063 70.6794 0.0000
v 74.4051 65.9013 0.0000
v 82.6631 57.4281 0.0000
v 80.7523 55.5351 0.0000
v 102.0636 33.5701 0.0000
v 104.5398 35.9029 0.0000
v 107.7311 32.6590 0.0000
v 111.5595 36.4317 0.0000
v 109.1818 38.7683 0.0000
v 114.7306 44.1679 0.0000
v 113.9038 45.1031 0.0000
v 116.1186 47.2310 0.0000
v 117.1246 46.2189 0.0000
v 117.9036 47.0173 0.0000
v 116.9886 48.0539 0.0000
v 128.1356 58.7718 0.0000
v 128.5341 58.2780 0.0000
v 130.7656 60.4772 0.0000
v 131.8153 59.3592 0.0000
v 136.6295 63.9937 0.0000
v 139.0017 61.5592 0.0000
v 136.2175 58.8332 0.0000
v 137.0561 57.9225 0.0000
v 137.4539 58.3089 0.0000
v 141.7687 54.0026 0.0000
v 117.3823 30.4434 13.6000
v 113.8241 34.0139 13.6000
v 109.9830 30.3147 13.6000
v 113.5395 26.6718 13.6000
v 100.5880 14.1278 13.6000
v 87.5789 27.4913 13.6000
v 90.6749 30.4511 13.6000
v 87.8710 33.3539 13.6000
v 83.9616 29.5200 13.6000
v 81.6084 31.9858 13.6000
v 82.4168 32.8065 13.6000
v 48.9553 67.3214 13.6000
v 51.9620 70.3090 13.6000
v 50.2983 72.0948 13.6000
v 46.3834 68.3323 13.6000
v 44.0263 70.7736 13.6000
v 44.9695 71.6800 13.6000
v 36.5066 80.4732 13.6000
v 61.8791 105.0642 13.6000
v 58.3205 108.7607 13.6000
v 55.9442 106.5292 13.6000
v 47.3251 115.4328 13.6000
v 45.1351 113.3093 13.6000
v 42.3059 116.2010 13.6000
v 40.9950 113.3495 13.6000
v 38.9112 111.5223 13.6000
v 36.2861 110.6313 13.6000
v 34.4317 110.6313 13.6000
v 32.6403 111.1113 13.6000
v 31.0338 112.0381 13.6000
v 29.7225 113.3502 13.6000
v 28.7951 114.9562 13.6000
v 28.2463 117.3096 13.6000
v 26.1181 119.4210 13.6000
v 38.8572 132.1008 13.6000
v 39.0789 131.8968 13.6000
v 39.5877 132.3756 13.6000
v 38.6361 133.4045 13.6000
v 41.0957 135.7930 13.6000
v 44.7717 131.8836 13.6000
v 46.5416 133.6152 13.6000
v 43.5783 136.7598 13.6000
v 76.5179 168.3013 13.6000
v 78.6405 165.9604 13.6000
v 87.5480 174.4644 13.6000
v 93.6404 168.1572 13.6000
v 84.9807 159.4870 13.6000
v 89.4499 154.8564 13.6000
v 76.0976 141.9862 13.6000
v 72.9314 145.2324 13.6000
v 69.2324 141.7538 13.6000
v 76.6604 137.8324 13.6000
v 66.3398 118.1921 13.6000
v 60.4080 121.2938 13.6000
v 59.9847 120.9041 13.6000
v 65.2859 115.5454 13.6000
v 60.7396 111.1392 13.6000
v 64.3914 107.4114 13.6000
v 68.9160 111.8333 13.6000
v 74.3662 106.2227 13.6000
v 76.2299 108.1057 13.6000
v 74.4399 109.1306 13.6000
v 77.5329 114.9827 13.6000
v 104.0553 100.9745 13.6000
v 102.0830 97.2687 13.6000
v 99.8943 98.3429 13.6000
v 98.8041 96.2745 13.6000
v 90.8421 100.4613 13.6000
v 89.3400 97.5843 13.6000
v 91.7336 95.0104 13.6000
v 91.9225 93.5764 13.6000
v 91.5961 92.9136 13.6000
v 90.8194 92.3180 13.6000
v 89.6066 92.2384 13.6000
v 88.7091 92.7648 13.6000
v 88.0494 92.1278 13.6000
v 93.4935 86.4349 13.6000
v 81.9791 75.2394 13.6000
v 80.7049 76.4679 13.6000
v 77.1939 73.0271 13.6000
v 79.4063 70.6794 13.6000
v 74.4051 65.9013 13.6000
v 82.6631 57.4281 13.6000
v 80.7523 55.5351 13.6000
v 102.0636 33.5701 13.6000
v 104.5398 35.9029 13.6000
v 107.7311 32.6590 13.6000
v 111.5595 36.4317 13.6000
v 109.1818 38.7683 13.6000
v 114.7306 44.1679 13.6000
v 113.9038 45.1031 13.6000
v 116.1186 47.2310 13.6000
v 117.1246 46.2189 13.6000
v 117.9036 47.0173 13.6000
v 116.9886 48.0539 13.6000
v 128.1356 58.7718 13.6000
v 128.5341 58.2780 13.6000
v 130.7656 60.4772 13.6000
v 131.8153 59.3592 13.6000
v 136.6295 63.9937 13.6000
v 139.0017 61.5592 13.6000
v 136.2175 58.8332 13.6000
v 137.0561 57.9225 13.6000
v 137.4539 58.3089 13.6000
v 141.7687 54.0026 13.6000
f 154 155 156 157 158 159 160 161 162 163 164 165 166 167 168 169 170 171 172 173 174 175 176 177 178 179 180 181 182 183 184 185 186 187 188 189 190 191 192 193 194 195 196 197 198 199 200 201 202 203 204 205 206 207 208 209 210 211 212 213 214 215 216 217 218 219 220 221 222 223 224 225 226 227 228 229 230 231 232 233 234 235 236 237 238 239 240 241 242 243 244 245 246 247 248 249 250 251 252 253 254 255 256 257 258
f 153 152 151 150 149 148 147 146 145 144 143 142 141 140 139 138 137 136 135 134 133 132 131 130 129 128 127 126 125 124 123 122 121 120 119 118 117 116 115 114 113 112 111 110 109 108 107 106 105 104 103 102 101 100 99 98 97 96 95 94 93 92 91 90 89 88 87 86 85 84 83 82 81 80 79 78 77 76 75 74 73 72 71 70 69 68 67 66 65 64 63 62 61 60 59 58 57 56 55 54 53 52 51 50 49
f 49 50 155 154
f 50 51 156 155
f 51 52 157 156
f 52 53 158 157
f 53 54 159 158
f 54 55 160 159
f 55 56 161 160
f 56 57 162 161
f 57 58 163 162
f 58 59 164 163
f 59 60 165 164
f 60 61 166 165
f 61 62 167 166
f 62 63 168 167
f 63 64 169 168
f 64 65 170 169
f 65 66 171 170
f 66 67 172 171
f 67 68 173 172
f 68 69 174 173
f 69 70 175 174
f 70 71 176 175
f 71 72 177 176
f 72 73 178 177
f 73 74 179 178
f 74 75 180 179
f 75 76 181 180
f 76 77 182 181
f 77 78 183 182
f 78 79 184 183
f 79 80 185 184
f 80 81 186 185
f 81 82 187 186
f 82 83 188 187
f 83 84 189 188
f 84 85 190 189
f 85 86 191 190
f 86 87 192 191
f 87 88 193 192
f 88 89 194 193
f 89 90 195 194
f 90 91 196 195
f 91 92 197 196
f 92 93 198 197
f 93 94 199 198
f 94 95 200 199
f 95 96 201 200
f 96 97 202 201
f 97 98 203 202
f 98 99 204 203
f 99 100 205 204
f 100 101 206 205
f 101 102 207 206
f 102 103 208 207
f 103 104 209 208
f 104 105 210 209
f 105 106 211 210
f 106 107 212 211
f 107 108 213 212
f 108 109 214 213
f 109 110 215 214
f 110 111 216 215
f 111 112 217 216
f 112 113 218 217
f 113 114 219 218
f 114 115 220 219
f 115 116 221 220
f 116 117 222 221
f 117 118 223 222
f 118 119 224 223
f 119 120 225 224
f 120 121 226 225
f 121 122 227 226
f 122 123 228 227
f 123 124 229 228
f 124 125 230 229
f 125 126 231 230
f 126 127 232 231
f 127 128 233 232
f 128 129 234 233
f 129 130 235 234
f 130 131 236 235
f 131 132 237 236
f 132 133 238 237
f 133 134 239 238
f 134 135 240 239
f 135 136 241 240
f 136 137 242 241
f 137 138 243 242
f 138 139 244 243
f 139 140 245 244
f 140 141 246 245
f 141 142 247 246
f 142 143 248 247
f 143 144 249 248
f 144 145 250 249
f 145 146 251 250
f 146 147 252 251
f 147 148 253 252
f 148 149 254 253
f 149 150 255 254
f 150 151 256 255
f 151 152 257 256
f 152 153 258 257
f 153 49 154 258
g Rakennukset_alue_rekisteritiedot-33857-0
usemtl context
v -47.2366 79.9861 0.0000
v -51.0378 83.9202 0.0000
v -60.9586 74.3330 0.0000
v -81.6973 95.7081 0.0000
v -43.9428 132.2705 0.0000
v -23.2218 110.9046 0.0000
v -29.9675 104.3327 0.0000
v -27.5041 101.8044 0.0000
v -31.3658 96.1311 0.0000
v -36.5752 90.1912 0.0000
v -47.2366 79.9861 6.8000
v -51.0378 83.9202 6.8000
v -60.9586 74.3330 6.8000
v -81.6973 95.7081 6.8000
v -43.9428 132.2705 6.8000
v -23.2218 110.9046 6.8000
v -29.9675 104.3327 6.8000
v -27.5041 101.8044 6.8000
v -31.3658 96.1311 6.8000
v -36.5752 90.1912 6.8000
f 269 270 271 272 273 274 275 276 277 278
f 268 267 266 265 264 263 262 261 260 259
f 259 260 270 269
f 260 261 271 270
f 261 262 272 271
f 262 263 273 272
f 263 264 274 273
f 264 265 275 274
f 265 266 276 275
f 266 267 277 276
f 267 268 278 277
f 268 259 269 278
g Rakennukset_alue_rekisteritiedot-33940-0
usemtl context
v -72.6253 65.1848 0.0000
v -74.3842 63.4790 0.0000
v -72.2611 61.2895 0.0000
v -107.1380 27.4665 0.0000
v -109.2611 29.6560 0.0000
v -111.0201 27.9502 0.0000
v -137.9514 55.7212 0.0000
v -128.2351 65.1433 0.0000
v -108.6032 44.8995 0.0000
v -89.6408 63.2886 0.0000
v -109.2733 83.5322 0.0000
v -99.5566 92.9556 0.0000
v -72.6253 65.1848 13.6000
v -74.3842 63.4790 13.6000
v -72.2611 61.2895 13.6000
v -107.1380 27.4665 13.6000
v -109.2611 29.6560 13.6000
v -111.0201 27.9502 13.6000
v -137.9514 55.7212 13.6000
v -128.2351 65.1433 13.6000
v -108.6032 44.8995 13.6000
v -89.6408 63.2886 13.6000
v -109.2733 83.5322 13.6000
v -99.5566 92.9556 13.6000
f 291 292 293 294 295 296 297 298 299 300 301 302
f 290 289 288 287 286 285 284 283 282 281 280 279
f 279 280 292 291
f 280 281 293 292
f 281 282 294 293
f 282 283 295 294
f 283 284 296 295
f 284 285 297 296
f 285 286 298 297
f 286 287 299 298
f 287 288 300 299
f 288 289 301 300
f 289 290 302 301
f 290 279 291 302
g Rakennukset_alue_rekisteritiedot-34277-0
usemtl context
v 200.2254 -250.0000 0.0000
v 212.9300 -237.9103 0.0000
v 215.2724 -240.3815 0.0000
v 216.3915 -239.2902 0.0000
v 226.5906 -250.0000 0.0000
v 200.2254 -250.0000 20.4000
v 212.9300 -237.9103 20.4000
v 215.2724 -240.3815 20.4000
v 216.3915 -239.2902 20.4000
v 226.5906 -250.0000 20.4000
f 308 309 310 311 312
f 307 306 305 304 303
f 303 304 309 308
f 304 305 310 309
f 305 306 311 310
f 306 307 312 311
f 307 303 308 312
g Rakennukset_alue_rekisteritiedot-35321-0
usemtl context
v 130.7921 158.0864 0.0000
v 129.3923 156.7290 0.0000
v 138.5752 147.2604 0.0000
v 139.9750 148.6178 0.0000
v 156.7525 131.3173 0.0000
v 150.4066 125.1626 0.0000
v 150.7618 124.7970 0.0000
v 144.9252 119.1368 0.0000
v 102.9389 162.4320 0.0000
v 109.6156 168.9062 0.0000
v 108.5083 170.0477 0.0000
v 114.0148 175.3871 0.0000
v 130.7921 158.0864 17.0000
v 129.3923 156.7290 17.0000
v 138.5752 147.2604 17.0000
v 139.9750 148.6178 17.0000
v 156.7525 131.3173 17.0000
v 150.4066 125.1626 17.0000
v 150.7618 124.7970 17.0000
v 144.9252 119.1368 17.0000
v 102.9389 162.4320 17.0000
v 109.6156 168.9062 17.0000
v 108.5083 170.0477 17.0000
v 114.0148 175.3871 17.0000
f 325 326 327 328 329 330 331 332 333 334 335 336
f 324 323 322 321 320 319 318 317 316 315 314 313
f 313 314 326 325
f 314 315 327 326
f 315 316 328 327
f 316 317 329 328
f 317 318 330 329
f 318 319 331 330
f 319 320 332 331
f 320 321 333 332
f 321 322 334 333
f 322 323 335 334
f 323 324 336 335
f 324 313 325 336
g Rakennukset_alue_rekisteritiedot-35635-0
usemtl context
v 65.1482 209.9748 0.0000
v 46.6578 229.0416 0.0000
v 61.1656 243.1110 0.0000
v 68.2666 235.7882 0.0000
v 61.0807 228.8197 0.0000
v 77.9616 211.2959 0.0000
v 77.9004 207.9802 0.0000
v 51.5673 182.5963 0.0000
v 44.4663 189.9181 0.0000
v 65.1482 209.9748 17.0000
v 46.6578 229.0416 17.0000
v 61.1656 243.1110 17.0000
v 68.2666 235.7882 17.0000
v 61.0807 228.8197 17.0000
v 77.9616 211.2959 17.0000
v 77.9004 207.9802 17.0000
v 51.5673 182.5963 17.0000
v 44.4663 189.9181 17.0000
f 346 347 348 349 350 351 352 353 354
f 345 344 343 342 341 340 339 338 337
f 337 338 347 346
f 338 339 348 347
f 339 340 349 348
f 340 341 350 349
f 341 342 351 350
f 342 343 352 351
f 343 344 353 352
f 344 345 354 353
f 345 337 346 354
g Rakennukset_alue_rekisteritiedot-36104-0
usemtl context
v -16.8702 179.6077 0.0000
v -10.3678 172.9035 0.0000
v -14.1234 169.3102 0.0000
v 3.9785 150.7035 0.0000
v 24.7612 170.8079 0.0000
v 31.8622 163.4861 0.0000
v 5.5932 137.8597 0.0000
v 2.2095 137.9340 0.0000
v -27.9108 168.9003 0.0000
v -16.8702 179.6077 20.4000
v -10.3678 172.9035 20.4000
v -14.1234 169.3102 20.4000
v 3.9785 150.7035 20.4000
v 24.7612 170.8079 20.4000
v 31.8622 163.4861 20.4000
v 5.5932 137.8597 20.4000
v 2.2095 137.9340 20.4000
v -27.9108 168.9003 20.4000
f 364 365 366 367 368 369 370 371 372
f 363 362 361 360 359 358 357 356 355
f 355 356 365 364
f 356 357 366 365
f 357 358 367 366
f 358 359 368 367
f 359 360 369 368
f 360 361 370 369
f 361 362 371 370
f 362 363 372 371
f 363 355 364 372
g Rakennukset_alue_rekisteritiedot-36723-0
usemtl context
v -159.4489 39.1645 0.0000
v -153.7401 33.2783 0.0000
v -155.2838 31.7818 0.0000
v -151.5590 27.9412 0.0000
v -150.0159 29.4377 0.0000
v -128.2502 6.9932 0.0000
v -130.9419 4.3832 0.0000
v -132.2997 5.7823 0.0000
v -148.4516 -9.8807 0.0000
v -156.6943 -1.3814 0.0000
v -148.8339 6.2414 0.0000
v -147.2322 4.5903 0.0000
v -144.7125 7.0344 0.0000
v -162.7750 25.6585 0.0000
v -164.2104 24.2667 0.0000
v -169.3484 29.5643 0.0000
v -159.4489 39.1645 13.6000
v -153.7401 33.2783 13.6000
v -155.2838 31.7818 13.6000
v -151.5590 27.9412 13.6000
v -150.0159 29.4377 13.6000
v -128.2502 6.9932 13.6000
v -130.9419 4.3832 13.6000
v -132.2997 5.7823 13.6000
v -148.4516 -9.8807 13.6000
v -156.6943 -1.3814 13.6000
v -148.8339 6.2414 13.6000
v -147.2322 4.5903 13.6000
v -144.7125 7.0344 13.6000
v -162.7750 25.6585 13.6000
v -164.2104 24.2667 13.6000
v -169.3484 29.5643 13.6000
f 389 390 391 392 393 394 395 396 397 398 399 400 401 402 403 404
f 388 387 386 385 384 383 382 381 380 379 378 377 376 375 374 373
f 373 374 390 389
f 374 375 391 390
f 375 376 392 391
f 376 377 393 392
f 377 378 394 393
f 378 379 395 394
f 379 380 396 395
f 380 381 397 396
f 381 382 398 397
f 382 383 399 398
f 383 384 400 399
f 384 385 401 400
f 385 386 402 401
f 386 387 403 402
f 387 388 404 403
f 388 373 389 404
g Rakennukset_alue_rekisteritiedot-36723-1
usemtl context
v -191.1534 11.1908 0.0000
v -185.4446 5.3045 0.0000
v -187.0960 3.7034 0.0000
v -183.3712 -0.1372 0.0000
v -181.7204 1.4640 0.0000
v -166.7698 -13.9529 0.0000
v -164.3400 -11.5958 0.0000
v -165.7393 -10.1532 0.0000
v -159.2783 -3.8878 0.0000
v -151.0362 -12.3871 0.0000
v -158.9327 -20.0455 0.0000
v -157.5749 -21.4446 0.0000
v -167.0329 -30.6172 0.0000
v -194.4652 -2.3297 0.0000
v -195.9013 -3.7215 0.0000
v -201.0525 1.5907 0.0000
v -191.1534 11.1908 13.6000
v -185.4446 5.3045 13.6000
v -187.0960 3.7034 13.6000
v -183.3712 -0.1372 13.6000
v -181.7204 1.4640 13.6000
v -166.7698 -13.9529 13.6000
v -164.3400 -11.5958 13.6000
v -165.7393 -10.1532 13.6000
v -159.2783 -3.8878 13.6000
v -151.0362 -12.3871 13.6000
v -158.9327 -20.0455 13.6000
v -157.5749 -21.4446 13.6000
v -167.0329 -30.6172 13.6000
v -194.4652 -2.3297 13.6000
v -195.9013 -3.7215 13.6000
v -201.0525 1.5907 13.6000
f 421 422 423 424 425 426 427 428 429 430 431 432 433 434 435 436
f 420 419 418 417 416 415 414 413 412 411 410 409 408 407 406 405
f 405 406 422 421
f 406 407 423 422
f 407 408 424 423
f 408 409 425 424
f 409 410 426 425
f 410 411 427 426
f 411 412 428 427
f 412 413 429 428
f 413 414 430 429
f 414 415 431 430
f 415 416 432 431
f 416 417 433 432
f 417 418 434 433
f 418 419 435 434
f 419 420 436 435
f 420 405 421 436
g Rakennukset_alue_rekisteritiedot-38289-0
usemtl context
v 25.5176 200.5165 0.0000
v 27.6757 198.2903 0.0000
v 29.6858 200.2401 0.0000
v 33.4449 196.3640 0.0000
v 31.4348 194.4143 0.0000
v 49.4658 175.8212 0.0000
v 38.6978 165.3786 0.0000
v 14.7496 190.0740 0.0000
v 25.5176 200.5165 10.2000
v 27.6757 198.2903 10.2000
v 29.6858 200.2401 10.2000
v 33.4449 196.3640 10.2000
v 31.4348 194.4143 10.2000
v 49.4658 175.8212 10.2000
v 38.6978 165.3786 10.2000
v 14.7496 190.0740 10.2000
f 445 446 447 448 449 450 451 452
f 444 443 442 441 440 439 438 437
f 437 438 446 445
f 438 439 447 446
f 439 440 448 447
f 440 441 449 448
f 441 442 450 449
f 442 443 451 450
f 443 444 452 451
f 444 437 445 452
g Rakennukset_alue_rekisteritiedot-39082-0
usemtl context
v 73.9955 241.3436 0.0000
v 66.8946 248.6664 0.0000
v 68.2698 250.0000 0.0000
v 82.9517 250.0000 0.0000
v 73.9955 241.3436 17.0000
v 66.8946 248.6664 17.0000
v 68.2698 250.0000 17.0000
v 82.9517 250.0000 17.0000
f 457 458 459 460
f 456 455 454 453
f 453 454 458 457
f 454 455 459 458
f 455 456 460 459
f 456 453 457 460
g Rakennukset_alue_rekisteritiedot-39832-1
usemtl context
v -174.4370 247.3241 0.0000
v -181.8485 240.2203 0.0000
v -191.4577 250.0000 0.0000
v -177.0322 250.0000 0.0000
v -174.4370 247.3241 6.8000
v -181.8485 240.2203 6.8000
v -191.4577 250.0000 6.8000
v -177.0322 250.0000 6.8000
f 465 466 467 468
f 464 463 462 461
f 461 462 466 465
f 462 463 467 466
f 463 464 468 467
f 464 461 465 468
g Rakennukset_alue_rekisteritiedot-42870-0
usemtl context
v 198.7507 216.2188 0.0000
v 196.6968 218.3835 0.0000
v 198.9110 220.5751 0.0000
v 208.4764 210.7723 0.0000
v 216.0893 218.2020 0.0000
v 219.6247 214.6193 0.0000
v 216.6377 211.6717 0.0000
v 218.1374 210.1189 0.0000
v 213.4811 205.6323 0.0000
v 220.9808 197.8183 0.0000
v 215.1411 192.1546 0.0000
v 209.1665 198.3334 0.0000
v 207.7241 196.9493 0.0000
v 199.6789 205.2706 0.0000
v 201.0615 206.6392 0.0000
v 195.1457 212.7734 0.0000
v 198.7507 216.2188 13.6000
v 196.6968 218.3835 13.6000
v 198.9110 220.5751 13.6000
v 208.4764 210.7723 13.6000
v 216.0893 218.2020 13.6000
v 219.6247 214.6193 13.6000
v 216.6377 211.6717 13.6000
v 218.1374 210.1189 13.6000
v 213.4811 205.6323 13.6000
v 220.9808 197.8183 13.6000
v 215.1411 192.1546 13.6000
v 209.1665 198.3334 13.6000
v 207.7241 196.9493 13.6000
v 199.6789 205.2706 13.6000
v 201.0615 206.6392 13.6000
v 195.1457 212.7734 13.6000
f 485 486 487 488 489 490 491 492 493 494 495 496 497 498 499 500
f 484 483 482 481 480 479 478 477 476 475 474 473 472 471 470 469
f 469 470 486 485
f 470 471 487 486
f 471 472 488 487
f 472 473 489 488
f 473 474 490 489
f 474 475 491 490
f 475 476 492 491
f 476 477 493 492
f 477 478 494 493
f 478 479 495 494
f 479 480 496 495
f 480 481 497 496
f 481 482 498 497
f 482 483 499 498
f 483 484 500 499
f 484 469 485 500
g Rakennukset_alue_rekisteritiedot-42937-1
usemtl context
v 172.1251 248.1967 0.0000
v 169.9253 246.0230 0.0000
v 167.8559 248.1632 0.0000
v 164.1920 244.6021 0.0000
v 159.0083 250.0000 0.0000
v 170.3838 250.0000 0.0000
v 172.1251 248.1967 13.6000
v 169.9253 246.0230 13.6000
v 167.8559 248.1632 13.6000
v 164.1920 244.6021 13.6000
v 159.0083 250.0000 13.6000
v 170.3838 250.0000 13.6000
f 507 508 509 510 511 512
f 506 505 504 503 502 501
f 501 502 508 507
f 502 503 509 508
f 503 504 510 509
f 504 505 511 510
f 505 506 512 511
f 506 501 507 512
g Rakennukset_alue_rekisteritiedot-43058-0
usemtl context
v 200.5595 177.2424 0.0000
v 199.1862 178.6592 0.0000
v 207.4904 186.7381 0.0000
v 208.8981 185.2712 0.0000
v 215.1007 191.3057 0.0000
v 220.7461 185.4379 0.0000
v 212.9762 177.9168 0.0000
v 220.4095 170.2186 0.0000
v 216.9282 166.7988 0.0000
v 213.8693 169.8209 0.0000
v 212.3485 168.2730 0.0000
v 207.8515 172.9313 0.0000
v 197.9927 163.4025 0.0000
v 195.8301 165.6085 0.0000
v 198.0060 167.6954 0.0000
v 194.5161 171.3338 0.0000
v 200.5595 177.2424 13.6000
v 199.1862 178.6592 13.6000
v 207.4904 186.7381 13.6000
v 208.8981 185.2712 13.6000
v 215.1007 191.3057 13.6000
v 220.7461 185.4379 13.6000
v 212.9762 177.9168 13.6000
v 220.4095 170.2186 13.6000
v 216.9282 166.7988 13.6000
v 213.8693 169.8209 13.6000
v 212.3485 168.2730 13.6000
v 207.8515 172.9313 13.6000
v 197.9927 163.4025 13.6000
v 195.8301 165.6085 13.6000
v 198.0060 167.6954 13.6000
v 194.5161 171.3338 13.6000
f 529 530 531 532 533 534 535 536 537 538 539 540 541 542 543 544
f 528 527 526 525 524 523 522 521 520 519 518 517 516 515 514 513
f 513 514 530 529
f 514 515 531 530
f 515 516 532 531
f 516 517 533 532
f 517 518 534 533
f 518 519 535 534
f 519 520 536 535
f 520 521 537 536
f 521 522 538 537
f 522 523 539 538
f 523 524 540 539
f 524 525 541 540
f 525 526 542 541
f 526 527 543 542
f 527 528 544 543
f 528 513 529 544
g Rakennukset_alue_rekisteritiedot-43110-0
usemtl context
v 183.0315 236.9168 0.0000
v 190.6987 244.3409 0.0000
v 194.1559 240.8195 0.0000
v 191.1650 237.8006 0.0000
v 192.6620 236.2935 0.0000
v 188.0605 231.7668 0.0000
v 197.5183 222.0119 0.0000
v 195.2675 219.8360 0.0000
v 193.2091 221.9584 0.0000
v 189.5835 218.4674 0.0000
v 183.7193 224.5114 0.0000
v 182.3090 223.1429 0.0000
v 174.2590 231.4843 0.0000
v 175.6760 232.8707 0.0000
v 169.8063 238.9303 0.0000
v 173.3820 242.4414 0.0000
v 171.3281 244.5905 0.0000
v 173.5588 246.6996 0.0000
v 183.0315 236.9168 13.6000
v 190.6987 244.3409 13.6000
v 194.1559 240.8195 13.6000
v 191.1650 237.8006 13.6000
v 192.6620 236.2935 13.6000
v 188.0605 231.7668 13.6000
v 197.5183 222.0119 13.6000
v 195.2675 219.8360 13.6000
v 193.2091 221.9584 13.6000
v 189.5835 218.4674 13.6000
v 183.7193 224.5114 13.6000
v 182.3090 223.1429 13.6000
v 174.2590 231.4843 13.6000
v 175.6760 232.8707 13.6000
v 169.8063 238.9303 13.6000
v 173.3820 242.4414 13.6000
v 171.3281 244.5905 13.6000
v 173.5588 246.6996 13.6000
f 563 564 565 566 567 568 569 570 571 572 573 574 575 576 577 578 579 580
f 562 561 560 559 558 557 556 555 554 553 552 551 550 549 548 547 546 545
f 545 546 564 563
f 546 547 565 564
f 547 548 566 565
f 548 549 567 566
f 549 550 568 567
f 550 551 569 568
f 551 552 570 569
f 552 553 571 570
f 553 554 572 571
f 554 555 573 572
f 555 556 574 573
f 556 557 575 574
f 557 558 576 575
f 558 559 577 576
f 559 560 578 577
f 560 561 579 578
f 561 562 580 579
f 562 545 563 580
g Rakennukset_alue_rekisteritiedot-45341-0
usemtl context
v 132.6671 239.7989 0.0000
v 134.8574 237.5504 0.0000
v 132.7586 235.4948 0.0000
v 136.2650 231.8953 0.0000
v 130.1822 225.9590 0.0000
v 131.5422 224.5377 0.0000
v 123.2374 216.4901 0.0000
v 121.8518 217.9025 0.0000
v 115.5848 211.8983 0.0000
v 109.9091 217.7295 0.0000
v 132.6671 239.7989 13.6000
v 134.8574 237.5504 13.6000
v 132.7586 235.4948 13.6000
v 136.2650 231.8953 13.6000
v 130.1822 225.9590 13.6000
v 131.5422 224.5377 13.6000
v 123.2374 216.4901 13.6000
v 121.8518 217.9025 13.6000
v 115.5848 211.8983 13.6000
v 109.9091 217.7295 13.6000
f 591 592 593 594 595 596 597 598 599 600
f 590 589 588 587 586 585 584 583 582 581
f 581 582 592 591
f 582 583 593 592
f 583 584 594 593
f 584 585 595 594
f 585 586 596 595
f 586 587 597 596
f 587 588 598 597
f 588 589 599 598
f 589 590 600 599
f 590 581 591 600
g Rakennukset_alue_rekisteritiedot-45669-0
usemtl context
v 122.8108 245.3259 0.0000
v 119.3138 248.9510 0.0000
v 117.1423 246.8330 0.0000
v 114.9460 249.0737 0.0000
v 115.9012 250.0000 0.0000
v 127.6237 250.0000 0.0000
v 122.8108 245.3259 13.6000
v 119.3138 248.9510 13.6000
v 117.1423 246.8330 13.6000
v 114.9460 249.0737 13.6000
v 115.9012 250.0000 13.6000
v 127.6237 250.0000 13.6000
f 607 608 609 610 611 612
f 606 605 604 603 602 601
f 601 602 608 607
f 602 603 609 608
f 603 604 610 609
f 604 605 611 610
f 605 606 612 611
f 606 601 607 612
g Rakennukset_alue_rekisteritiedot-45774-0
usemtl context
v 119.1707 212.5961 0.0000
v 139.3563 191.8230 0.0000
v 133.5020 186.1216 0.0000
v 127.4854 192.3942 0.0000
v 126.0158 190.9978 0.0000
v 117.9508 199.3037 0.0000
v 119.2891 200.7080 0.0000
v 113.3031 206.9159 0.0000
v 119.1707 212.5961 10.2000
v 139.3563 191.8230 10.2000
v 133.5020 186.1216 10.2000
v 127.4854 192.3942 10.2000
v 126.0158 190.9978 10.2000
v 117.9508 199.3037 10.2000
v 119.2891 200.7080 10.2000
v 113.3031 206.9159 10.2000
f 621 622 623 624 625 626 627 628
f 620 619 618 617 616 615 614 613
f 613 614 622 621
f 614 615 623 622
f 615 616 624 623
f 616 617 625 624
f 617 618 626 625
f 618 619 627 626
f 619 620 628 627
f 620 613 621 628
g Rakennukset_alue_rekisteritiedot-45881-0
usemtl context
v 167.1064 171.1274 0.0000
v 165.7270 172.6155 0.0000
v 174.0562 180.6476 0.0000
v 175.4246 179.2386 0.0000
v 181.4736 185.1226 0.0000
v 185.0002 181.4853 0.0000
v 187.1550 183.5799 0.0000
v 189.3071 181.3940 0.0000
v 166.5491 159.3243 0.0000
v 160.8860 165.1643 0.0000
v 167.1064 171.1274 10.2000
v 165.7270 172.6155 10.2000
v 174.0562 180.6476 10.2000
v 175.4246 179.2386 10.2000
v 181.4736 185.1226 10.2000
v 185.0002 181.4853 10.2000
v 187.1550 183.5799 10.2000
v 189.3071 181.3940 10.2000
v 166.5491 159.3243 10.2000
v 160.8860 165.1643 10.2000
f 639 640 641 642 643 644 645 646 647 648
f 638 637 636 635 634 633 632 631 630 629
f 629 630 640 639
f 630 631 641 640
f 631 632 642 641
f 632 633 643 642
f 633 634 644 643
f 634 635 645 644
f 635 636 646 645
f 636 637 647 646
f 637 638 648 647
f 638 629 639 648
g Rakennukset_alue_rekisteritiedot-45907-0
usemtl context
v 141.5660 189.5445 0.0000
v 161.6858 168.7871 0.0000
v 155.8183 163.1693 0.0000
v 149.7983 169.3326 0.0000
v 148.3552 167.9775 0.0000
v 140.2725 176.3056 0.0000
v 141.7072 177.7120 0.0000
v 135.7034 183.9166 0.0000
v 141.5660 189.5445 10.2000
v 161.6858 168.7871 10.2000
v 155.8183 163.1693 10.2000
v 149.7983 169.3326 10.2000
v 148.3552 167.9775 10.2000
v 140.2725 176.3056 10.2000
v 141.7072 177.7120 10.2000
v 135.7034 183.9166 10.2000
f 657 658 659 660 661 662 663 664
f 656 655 654 653 652 651 650 649
f 649 650 658 657
f 650 651 659 658
f 651 652 660 659
f 652 653 661 660
f 653 654 662 661
f 654 655 663 662
f 655 656 664 663
f 656 649 657 664
g Rakennukset_alue_rekisteritiedot-48969-0
usemtl context
v -246.4446 162.1427 0.0000
v -238.0013 153.4358 0.0000
v -249.3051 142.4741 0.0000
v -250.0000 143.1906 0.0000
v -250.0000 158.6950 0.0000
v -246.4446 162.1427 6.8000
v -238.0013 153.4358 6.8000
v -249.3051 142.4741 6.8000
v -250.0000 143.1906 6.8000
v -250.0000 158.6950 6.8000
f 670 671 672 673 674
f 669 668 667 666 665
f 665 666 671 670
f 666 667 672 671
f 667 668 673 672
f 668 669 674 673
f 669 665 670 674
g Rakennukset_alue_rekisteritiedot-49032-0
usemtl context
v -219.0401 171.6202 0.0000
v -227.4352 180.2157 0.0000
v -216.0063 191.0816 0.0000
v -207.5753 182.3892 0.0000
v -219.0401 171.6202 6.8000
v -227.4352 180.2157 6.8000
v -216.0063 191.0816 6.8000
v -207.5753 182.3892 6.8000
f 679 680 681 682
f 678 677 676 675
f 675 676 680 679
f 676 677 681 680
f 677 678 682 681
f 678 675 679 682
g Rakennukset_alue_rekisteritiedot-49129-0
usemtl context
v 242.8048 220.4770 0.0000
v 234.0566 222.4323 0.0000
v 239.0107 244.4567 0.0000
v 247.8098 242.4646 0.0000
v 242.8048 220.4770 6.8000
v 234.0566 222.4323 6.8000
v 239.0107 244.4567 6.8000
v 247.8098 242.4646 6.8000
f 687 688 689 690
f 686 685 684 683
f 683 684 688 687
f 684 685 689 688
f 685 686 690 689
f 686 683 687 690
g Rakennukset_alue_rekisteritiedot-50176-0
usemtl context
v -226.8498 164.0689 0.0000
v -238.0013 153.4358 0.0000
v -246.4446 162.1427 0.0000
v -235.3269 172.7124 0.0000
v -226.8498 164.0689 6.8000
v -238.0013 153.4358 6.8000
v -246.4446 162.1427 6.8000
v -235.3269 172.7124 6.8000
f 695 696 697 698
f 694 693 692 691
f 691 692 696 695
f 692 693 697 696
f 693 694 698 697
f 694 691 695 698
g Rakennukset_alue_rekisteritiedot-50834-0
usemtl context
v -204.9642 201.5801 0.0000
v -196.5659 192.9791 0.0000
v -207.5753 182.3892 0.0000
v -216.0063 191.0816 0.0000
v -204.9642 201.5801 6.8000
v -196.5659 192.9791 6.8000
v -207.5753 182.3892 6.8000
v -216.0063 191.0816 6.8000
f 703 704 705 706
f 702 701 700 699
f 699 700 704 703
f 700 701 705 704
f 701 702 706 705
f 702 699 703 706
g Rakennukset_alue_rekisteritiedot-51413-0
usemtl context
v -159.0168 231.4379 0.0000
v -163.9006 226.7424 0.0000
v -163.3170 226.1438 0.0000
v -164.9705 224.5326 0.0000
v -165.5668 225.1179 0.0000
v -170.5270 220.4092 0.0000
v -177.6232 227.5731 0.0000
v -166.0481 238.5772 0.0000
v -159.0168 231.4379 6.8000
v -163.9006 226.7424 6.8000
v -163.3170 226.1438 6.8000
v -164.9705 224.5326 6.8000
v -165.5668 225.1179 6.8000
v -170.5270 220.4092 6.8000
v -177.6232 227.5731 6.8000
v -166.0481 238.5772 6.8000
f 715 716 717 718 719 720 721 722
f 714 713 712 711 710 709 708 707
f 707 708 716 715
f 708 709 717 716
f 709 710 718 717
f 710 711 719 718
f 711 712 720 719
f 712 713 721 720
f 713 714 722 721
f 714 707 715 722
g Rakennukset_alue_rekisteritiedot-61548-0
usemtl context
v -221.0966 246.9008 0.0000
v -215.3363 240.8328 0.0000
v -215.9777 240.2271 0.0000
v -213.6232 237.7043 0.0000
v -217.2673 234.2850 0.0000
v -219.6691 236.7421 0.0000
v -221.7209 234.8047 0.0000
v -227.5323 240.8092 0.0000
v -221.0966 246.9008 6.8000
v -215.3363 240.8328 6.8000
v -215.9777 240.2271 6.8000
v -213.6232 237.7043 6.8000
v -217.2673 234.2850 6.8000
v -219.6691 236.7421 6.8000
v -221.7209 234.8047 6.8000
v -227.5323 240.8092 6.8000
f 731 732 733 734 735 736 737 738
f 730 729 728 727 726 725 724 723
f 723 724 732 731
f 724 725 733 732
f 725 726 734 733
f 726 727 735 734
f 727 728 736 735
f 728 729 737 736
f 729 730 738 737
f 730 723 731 738
g Rakennukset_alue_rekisteritiedot-61860-0
usemtl context
v -179.2501 214.0783 0.0000
v -180.5729 212.8346 0.0000
v -179.3548 211.6384 0.0000
v -181.4914 209.6933 0.0000
v -182.5826 210.8549 0.0000
v -186.5125 207.1873 0.0000
v -192.4924 213.4370 0.0000
v -185.2950 220.2801 0.0000
v -179.2501 214.0783 6.8000
v -180.5729 212.8346 6.8000
v -179.3548 211.6384 6.8000
v -181.4914 209.6933 6.8000
v -182.5826 210.8549 6.8000
v -186.5125 207.1873 6.8000
v -192.4924 213.4370 6.8000
v -185.2950 220.2801 6.8000
f 747 748 749 750 751 752 753 754
f 746 745 744 743 742 741 740 739
f 739 740 748 747
f 740 741 749 748
f 741 742 750 749
f 742 743 751 750
f 743 744 752 751
f 744 745 753 752
f 745 746 754 753
f 746 739 747 754
g Rakennukset_alue_rekisteritiedot-68417-0
usemtl context
v -245.6453 212.1501 0.0000
v -246.4848 211.3506 0.0000
v -245.4314 210.2570 0.0000
v -247.7717 208.0992 0.0000
v -248.7997 209.1171 0.0000
v -250.0000 207.9982 0.0000
v -250.0000 216.6979 0.0000
v -245.6453 212.1501 6.8000
v -246.4848 211.3506 6.8000
v -245.4314 210.2570 6.8000
v -247.7717 208.0992 6.8000
v -248.7997 209.1171 6.8000
v -250.0000 207.9982 6.8000
v -250.0000 216.6979 6.8000
f 762 763 764 765 766 767 768
f 761 760 759 758 757 756 755
f 755 756 763 762
f 756 757 764 763
f 757 758 765 764
f 758 759 766 765
f 759 760 767 766
f 760 761 768 767
f 761 755 762 768
g Rakennukset_alue_rekisteritiedot-68454-0
usemtl context
v -236.2450 232.5599 0.0000
v -232.8065 229.0482 0.0000
v -231.9160 229.7841 0.0000
v -230.5583 228.4618 0.0000
v -231.3340 227.5855 0.0000
v -230.4208 226.5933 0.0000
v -231.6549 225.3496 0.0000
v -230.6518 224.3061 0.0000
v -232.8779 222.1226 0.0000
v -233.9059 223.1405 0.0000
v -236.9453 220.3871 0.0000
v -242.8709 226.4808 0.0000
v -236.2450 232.5599 6.8000
v -232.8065 229.0482 6.8000
v -231.9160 229.7841 6.8000
v -230.5583 228.4618 6.8000
v -231.3340 227.5855 6.8000
v -230.4208 226.5933 6.8000
v -231.6549 225.3496 6.8000
v -230.6518 224.3061 6.8000
v -232.8779 222.1226 6.8000
v -233.9059 223.1405 6.8000
v -236.9453 220.3871 6.8000
v -242.8709 226.4808 6.8000
f 781 782 783 784 785 786 787 788 789 790 791 792
f 780 779 778 777 776 775 774 773 772 771 770 769
f 769 770 782 781
f 770 771 783 782
f 771 772 784 783
f 772 773 785 784
f 773 774 786 785
f 774 775 787 786
f 775 776 788 787
f 776 777 789 788
f 777 778 790 789
f 778 779 791 790
f 779 780 792 791
f 780 769 781 792
g Rakennukset_alue_rekisteritiedot-72987-0
usemtl context
v 151.1938 75.3282 0.0000
v 153.8853 77.9395 0.0000
v 146.9019 85.1384 0.0000
v 177.2209 114.5485 0.0000
v 183.0082 112.7372 0.0000
v 183.4287 114.0818 0.0000
v 196.1398 110.1055 0.0000
v 195.7216 108.7598 0.0000
v 210.4864 104.1407 0.0000
v 220.1416 135.0025 0.0000
v 218.8203 135.4165 0.0000
v 222.4989 147.1745 0.0000
v 223.8190 146.7561 0.0000
v 226.0874 154.0070 0.0000
v 237.3680 150.4783 0.0000
v 234.7914 145.4815 0.0000
v 235.6041 144.9730 0.0000
v 232.9702 140.7673 0.0000
v 236.7697 139.5788 0.0000
v 230.2570 132.3189 0.0000
v 231.4567 131.7166 0.0000
v 227.8148 124.4609 0.0000
v 228.9812 123.8029 0.0000
v 225.9169 118.3685 0.0000
v 227.0899 117.7596 0.0000
v 223.6502 111.1298 0.0000
v 224.7855 110.3917 0.0000
v 222.1838 106.3887 0.0000
v 223.3369 105.7419 0.0000
v 220.3541 100.4245 0.0000
v 221.4068 99.5760 0.0000
v 215.8642 92.0215 0.0000
v 218.7551 91.0429 0.0000
v 216.0823 82.4397 0.0000
v 182.3469 92.9947 0.0000
v 157.4672 68.8616 0.0000
v 151.1938 75.3282 23.8000
v 153.8853 77.9395 23.8000
v 146.9019 85.1384 23.8000
v 177.2209 114.5485 23.8000
v 183.0082 112.7372 23.8000
v 183.4287 114.0818 23.8000
v 196.1398 110.1055 23.8000
v 195.7216 108.7598 23.8000
v 210.4864 104.1407 23.8000
v 220.1416 135.0025 23.8000
v 218.8203 135.4165 23.8000
v 222.4989 147.1745 23.8000
v 223.8190 146.7561 23.8000
v 226.0874 154.0070 23.8000
v 237.3680 150.4783 23.8000
v 234.7914 145.4815 23.8000
v 235.6041 144.9730 23.8000
v 232.9702 140.7673 23.8000
v 236.7697 139.5788 23.8000
v 230.2570 132.3189 23.8000
v 231.4567 131.7166 23.8000
v 227.8148 124.4609 23.8000
v 228.9812 123.8029 23.8000
v 225.9169 118.3685 23.8000
v 227.0899 117.7596 23.8000
v 223.6502 111.1298 23.8000
v 224.7855 110.3917 23.8000
v 222.1838 106.3887 23.8000
v 223.3369 105.7419 23.8000
v 220.3541 100.4245 23.8000
v 221.4068 99.5760 23.8000
v 215.8642 92.0215 23.8000
v 218.7551 91.0429 23.8000
v 216.0823 82.4397 23.8000
v 182.3469 92.9947 23.8000
v 157.4672 68.8616 23.8000
f 829 830 831 832 833 834 835 836 837 838 839 840 841 842 843 844 845 846 847 848 849 850 851 852 853 854 855 856 857 858 859 860 861 862 863 864
f 828 827 826 825 824 823 822 821 820 819 818 817 816 815 814 813 812 811 810 809 808 807 806 805 804 803 802 801 800 799 798 797 796 795 794 793
f 793 794 830 829
f 794 795 831 830
f 795 796 832 831
f 796 797 833 832
f 797 798 834 833
f 798 799 835 834
f 799 800 836 835
f 800 801 837 836
f 801 802 838 837
f 802 803 839 838
f 803 804 840 839
f 804 805 841 840
f 805 806 842 841
f 806 807 843 842
f 807 808 844 843
f 808 809 845 844
f 809 810 846 845
f 810 811 847 846
f 811 812 848 847
f 812 813 849 848
f 813 814 850 849
f 814 815 851 850
f 815 816 852 851
f 816 817 853 852
f 817 818 854 853
f 818 819 855 854
f 819 820 856 855
f 820 821 857 856
f 821 822 858 857
f 822 823 859 858
f 823 824 860 859
f 824 825 861 860
f 825 826 862 861
f 826 827 863 862
f 827 828 864 863
f 828 793 829 864
g Rakennukset_alue_rekisteritiedot-74578-0
usemtl context
v -32.2097 -219.8503 0.0000
v -34.8834 -214.2345 0.0000
v -37.2703 -215.1868 0.0000
v -42.8988 -203.8604 0.0000
v -24.3979 -194.9812 0.0000
v -28.8552 -185.6230 0.0000
v -3.5550 -173.1946 0.0000
v 0.7226 -181.7594 0.0000
v 4.8991 -179.7819 0.0000
v 9.5218 -189.0710 0.0000
v -5.4329 -196.7446 0.0000
v -3.7893 -199.9476 0.0000
v -1.4760 -198.7601 0.0000
v 1.0047 -203.5948 0.0000
v -32.2097 -219.8503 4.0000
v -34.8834 -214.2345 4.0000
v -37.2703 -215.1868 4.0000
v -42.8988 -203.8604 4.0000
v -24.3979 -194.9812 4.0000
v -28.8552 -185.6230 4.0000
v -3.5550 -173.1946 4.0000
v 0.7226 -181.7594 4.0000
v 4.8991 -179.7819 4.0000
v 9.5218 -189.0710 4.0000
v -5.4329 -196.7446 4.0000
v -3.7893 -199.9476 4.0000
v -1.4760 -198.7601 4.0000
v 1.0047 -203.5948 4.0000
f 879 880 881 882 883 884 885 886 887 888 889 890 891 892
f 878 877 876 875 874 873 872 871 870 869 868 867 866 865
f 865 866 880 879
f 866 867 881 880
f 867 868 882 881
f 868 869 883 882
f 869 870 884 883
f 870 871 885 884
f 871 872 886 885
f 872 873 887 886
f 873 874 888 887
f 874 875 889 888
f 875 876 890 889
f 876 877 891 890
f 877 878 892 891
f 878 865 879 892
g Rakennukset_alue_rekisteritiedot-77061-0
usemtl context
v -93.8593 235.8998 0.0000
v -112.2157 236.3642 0.0000
v -112.1481 239.0437 0.0000
v -120.6663 239.2828 0.0000
v -120.7512 236.5799 0.0000
v -125.5193 236.7009 0.0000
v -137.9539 239.2186 0.0000
v -137.6814 250.0000 0.0000
v -93.5032 250.0000 0.0000
v -93.8593 235.8998 6.8000
v -112.2157 236.3642 6.8000
v -112.1481 239.0437 6.8000
v -120.6663 239.2828 6.8000
v -120.7512 236.5799 6.8000
v -125.5193 236.7009 6.8000
v -137.9539 239.2186 6.8000
v -137.6814 250.0000 6.8000
v -93.5032 250.0000 6.8000
f 902 903 904 905 906 907 908 909 910
f 901 900 899 898 897 896 895 894 893
f 893 894 903 902
f 894 895 904 903
f 895 896 905 904
f 896 897 906 905
f 897 898 907 906
f 898 899 908 907
f 899 900 909 908
f 900 901 910 909
f 901 893 902 910
g Rakennukset_alue_rekisteritiedot-7772-0
usemtl context
v -73.9739 -201.4468 0.0000
v -71.3182 -199.9866 0.0000
v -67.9206 -206.1343 0.0000
v -70.5763 -207.5956 0.0000
v -73.9739 -201.4468 6.8000
v -71.3182 -199.9866 6.8000
v -67.9206 -206.1343 6.8000
v -70.5763 -207.5956 6.8000
f 915 916 917 918
f 914 913 912 911
f 911 912 916 915
f 912 913 917 916
f 913 914 918 917
f 914 911 915 918
g Rakennukset_alue_rekisteritiedot-78521-0
usemtl campus
v -81.9562 -17.8033 0.0000
v -77.0029 -12.9997 0.0000
v -77.6990 -12.2818 0.0000
v -69.9608 -4.7780 0.0000
v -69.2642 -5.4948 0.0000
v -65.8401 -2.1755 0.0000
v -66.5362 -1.4576 0.0000
v -58.4169 6.4169 0.0000
v -57.7208 5.6990 0.0000
v -52.7681 10.5026 0.0000
v -53.4642 11.2194 0.0000
v -46.4291 18.0429 0.0000
v -37.5461 8.8827 0.0000
v -30.1310 16.0725 0.0000
v -52.2702 38.9022 0.0000
v -21.1180 69.1124 0.0000
v 0.9508 46.3554 0.0000
v 0.7350 46.1472 0.0000
v 10.1861 36.4587 0.0000
v 15.0460 41.1722 0.0000
v 13.4798 42.7875 0.0000
v 16.6602 45.8708 0.0000
v 18.2270 44.2555 0.0000
v 20.8042 46.7553 0.0000
v 22.7739 44.7242 0.0000
v 24.7120 46.6027 0.0000
v 17.6108 53.9256 0.0000
v 24.6678 60.7692 0.0000
v 32.4302 52.7652 0.0000
v 33.1010 53.4155 0.0000
v 43.5121 42.6804 0.0000
v 40.6408 39.8944 0.0000
v 44.0172 36.4141 0.0000
v 46.8890 39.1979 0.0000
v 85.4181 -0.5308 0.0000
v 42.8279 -41.8348 0.0000
v 4.2977 -2.1057 0.0000
v 7.2768 0.7839 0.0000
v 3.1350 5.0546 0.0000
v 11.8362 13.4916 0.0000
v 10.8608 14.4971 0.0000
v 7.2137 10.9606 0.0000
v 2.0351 16.3015 0.0000
v 5.6821 19.8380 0.0000
v 3.8371 21.7409 0.0000
v 2.2070 20.1597 0.0000
v -0.5420 22.9957 0.0000
v 1.0871 24.5758 0.0000
v -0.0269 25.7251 0.0000
v -27.6949 -1.2752 0.0000
v -26.5881 -2.4156 0.0000
v -24.5462 -0.4358 0.0000
v -21.7962 -3.2707 0.0000
v -23.8380 -5.2516 0.0000
v -21.3562 -7.8111 0.0000
v -17.8462 -4.4072 0.0000
v -11.0198 -11.4459 0.0000
v -10.7330 -11.1675 0.0000
v -8.9578 -12.9979 0.0000
v -9.2452 -13.2763 0.0000
v 5.5482 -28.5309 0.0000
v -5.0540 -38.8130 0.0000
v -19.5692 -23.8460 0.0000
v -24.5369 -28.6630 0.0000
v -11.2538 -42.3603 0.0000
v -18.3471 -49.2384 0.0000
v -31.6297 -35.5411 0.0000
v -36.5969 -40.3592 0.0000
v -23.3149 -54.0565 0.0000
v -30.4072 -60.9345 0.0000
v -43.6898 -47.2372 0.0000
v -48.6581 -52.0542 0.0000
v -35.3749 -65.7515 0.0000
v -42.4667 -72.6296 0.0000
v -70.3282 -43.9004 0.0000
v -70.6872 -44.2478 0.0000
v -75.2462 -39.5456 0.0000
v -74.8872 -39.1982 0.0000
v -89.7019 -23.9221 0.0000
v -82.6517 -17.0865 0.0000
v -81.9562 -17.8033 13.6000
v -77.0029 -12.9997 13.6000
v -77.6990 -12.2818 13.6000
v -69.9608 -4.7780 13.6000
v -69.2642 -5.4948 13.6000
v -65.8401 -2.1755 13.6000
v -66.5362 -1.4576 13.6000
v -58.4169 6.4169 13.6000
v -57.7208 5.6990 13.6000
v -52.7681 10.5026 13.6000
v -53.4642 11.2194 13.6000
v -46.4291 18.0429 13.6000
v -37.5461 8.8827 13.6000
v -30.1310 16.0725 13.6000
v -52.2702 38.9022 13.6000
v -21.1180 69.1124 13.6000
v 0.9508 46.3554 13.6000
v 0.7350 46.1472 13.6000
v 10.1861 36.4587 13.6000
v 15.0460 41.1722 13.6000
v 13.4798 42.7875 13.6000
v 16.6602 45.8708 13.6000
v 18.2270 44.2555 13.6000
v 20.8042 46.7553 13.6000
v 22.7739 44.7242 13.6000
v 24.7120 46.6027 13.6000
v 17.6108 53.9256 13.6000
v 24.6678 60.7692 13.6000
v 32.4302 52.7652 13.6000
v 33.1010 53.4155 13.6000
v 43.5121 42.6804 13.6000
v 40.6408 39.8944 13.6000
v 44.0172 36.4141 13.6000
v 46.8890 39.1979 13.6000
v 85.4181 -0.5308 13.6000
v 42.8279 -41.8348 13.6000
v 4.2977 -2.1057 13.6000
v 7.2768 0.7839 13.6000
v 3.1350 5.0546 13.6000
v 11.8362 13.4916 13.6000
v 10.8608 14.4971 13.6000
v 7.2137 10.9606 13.6000
v 2.0351 16.3015 13.6000
v 5.6821 19.8380 13.6000
v 3.8371 21.7409 13.6000
v 2.2070 20.1597 13.6000
v -0.5420 22.9957 13.6000
v 1.0871 24.5758 13.6000
v -0.0269 25.7251 13.6000
v -27.6949 -1.2752 13.6000
v -26.5881 -2.4156 13.6000
v -24.5462 -0.4358 13.6000
v -21.7962 -3.2707 13.6000
v -23.8380 -5.2516 13.6000
v -21.3562 -7.8111 13.6000
v -17.8462 -4.4072 13.6000
v -11.0198 -11.4459 13.6000
v -10.7330 -11.1675 13.6000
v -8.9578 -12.9979 13.6000
v -9.2452 -13.2763 13.6000
v 5.5482 -28.5309 13.6000
v -5.0540 -38.8130 13.6000
v -19.5692 -23.8460 13.6000
v -24.5369 -28.6630 13.6000
v -11.2538 -42.3603 13.6000
v -18.3471 -49.2384 13.6000
v -31.6297 -35.5411 13.6000
v -36.5969 -40.3592 13.6000
v -23.3149 -54.0565 13.6000
v -30.4072 -60.9345 13.6000
v -43.6898 -47.2372 13.6000
v -48.6581 -52.0542 13.6000
v -35.3749 -65.7515 13.6000
v -42.4667 -72.6296 13.6000
v -70.3282 -43.9004 13.6000
v -70.6872 -44.2478 13.6000
v -75.2462 -39.5456 13.6000
v -74.8872 -39.1982 13.6000
v -89.7019 -23.9221 13.6000
v -82.6517 -17.0865 13.6000
f 999 1000 1001 1002 1003 1004 1005 1006 1007 1008 1009 1010 1011 1012 1013 1014 1015 1016 1017 1018 1019 1020 1021 1022 1023 1024 1025 1026 1027 1028 1029 1030 1031 1032 1033 1034 1035 1036 1037 1038 1039 1040 1041 1042 1043 1044 1045 1046 1047 1048 1049 1050 1051 1052 1053 1054 1055 1056 1057 1058 1059 1060 1061 1062 1063 1064 1065 1066 1067 1068 1069 1070 1071 1072 1073 1074 1075 1076 1077 1078
f 998 997 996 995 994 993 992 991 990 989 988 987 986 985 984 983 982 981 980 979 978 977 976 975 974 973 972 971 970 969 968 967 966 965 964 963 962 961 960 959 958 957 956 955 954 953 952 951 950 949 948 947 946 945 944 943 942 941 940 939 938 937 936 935 934 933 932 931 930 929 928 927 926 925 924 923 922 921 920 919
f 919 920 1000 999
f 920 921 1001 1000
f 921 922 1002 1001
f 922 923 1003 1002
f 923 924 1004 1003
f 924 925 1005 1004
f 925 926 1006 1005
f 926 927 1007 1006
f 927 928 1008 1007
f 928 929 1009 1008
f 929 930 1010 1009
f 930 931 1011 1010
f 931 932 1012 1011
f 932 933 1013 1012
f 933 934 1014 1013
f 934 935 1015 1014
f 935 936 1016 1015
f 936 937 1017 1016
f 937 938 1018 1017
f 938 939 1019 1018
f 939 940 1020 1019
f 940 941 1021 1020
f 941 942 1022 1021
f 942 943 1023 1022
f 943 944 1024 1023
f 944 945 1025 1024
f 945 946 1026 1025
f 946 947 1027 1026
f 947 948 1028 1027
f 948 949 1029 1028
f 949 950 1030 1029
f 950 951 1031 1030
f 951 952 1032 1031
f 952 953 1033 1032
f 953 954 1034 1033
f 954 955 1035 1034
f 955 956 1036 1035
f 956 957 1037 1036
f 957 958 1038 1037
f 958 959 1039 1038
f 959 960 1040 1039
f 960 961 1041 1040
f 961 962 1042 1041
f 962 963 1043 1042
f 963 964 1044 1043
f 964 965 1045 1044
f 965 966 1046 1045
f 966 967 1047 1046
f 967 968 1048 1047
f 968 969 1049 1048
f 969 970 1050 1049
f 970 971 1051 1050
f 971 972 1052 1051
f 972 973 1053 1052
f 973 974 1054 1053
f 974 975 1055 1054
f 975 976 1056 1055
f 976 977 1057 1056
f 977 978 1058 1057
f 978 979 1059 1058
f 979 980 1060 1059
f 980 981 1061 1060
f 981 982 1062 1061
f 982 983 1063 1062
f 983 984 1064 1063
f 984 985 1065 1064
f 985 986 1066 1065
f 986 987 1067 1066
f 987 988 1068 1067
f 988 989 1069 1068
f 989 990 1070 1069
f 990 991 1071 1070
f 991 992 1072 1071
f 992 993 1073 1072
f 993 994 1074 1073
f 994 995 1075 1074
f 995 996 1076 1075
f 996 997 1077 1076
f 997 998 1078 1077
f 998 919 999 1078
g Rakennukset_alue_rekisteritiedot-79951-0
usemtl context
v 25.2320 -99.8804 0.0000
v 3.9423 -120.4758 0.0000
v -21.5949 -94.0891 0.0000
v -0.4149 -73.5428 0.0000
v 25.2320 -99.8804 6.8000
v 3.9423 -120.4758 6.8000
v -21.5949 -94.0891 6.8000
v -0.4149 -73.5428 6.8000
f 1083 1084 1085 1086
f 1082 1081 1080 1079
f 1079 1080 1084 1083
f 1080 1081 1085 1084
f 1081 1082 1086 1085
f 1082 1079 1083 1086
g Rakennukset_alue_rekisteritiedot-79952-0
usemtl context
v -35.1641 -80.0864 0.0000
v -30.8905 -75.8996 0.0000
v -22.8663 -84.0911 0.0000
v -27.1799 -88.3168 0.0000
v -35.1641 -80.0864 6.8000
v -30.8905 -75.8996 6.8000
v -22.8663 -84.0911 6.8000
v -27.1799 -88.3168 6.8000
f 1091 1092 1093 1094
f 1090 1089 1088 1087
f 1087 1088 1092 1091
f 1088 1089 1093 1092
f 1089 1090 1094 1093
f 1090 1087 1091 1094
g Rakennukset_alue_rekisteritiedot-8038-0
usemtl context
v 84.4687 -11.7610 0.0000
v 94.6679 -22.2775 0.0000
v 92.4424 -24.4355 0.0000
v 82.2432 -13.9190 0.0000
v 84.4687 -11.7610 6.8000
v 94.6679 -22.2775 6.8000
v 92.4424 -24.4355 6.8000
v 82.2432 -13.9190 6.8000
f 1099 1100 1101 1102
f 1098 1097 1096 1095
f 1095 1096 1100 1099
f 1096 1097 1101 1100
f 1097 1098 1102 1101
f 1098 1095 1099 1102
